STARTFONT 2.1
FONT -Adobe-ITC Bookman-Light-I-Normal--11-80-100-100-P-59-ISO8859-1
SIZE 8 100 100
FONTBOUNDINGBOX 15 11 -3 -3

STARTPROPERTIES 26
_DEC_DEVICE_FONTNAMES "PS=Bookman-LightItalic"
FONTNAME_REGISTRY ""
FAMILY_NAME "ITC Bookman"
FOUNDRY "Adobe"
WEIGHT_NAME "Light"
SLANT "I"
SETWIDTH_NAME "Normal"
ADD_STYLE_NAME ""
PIXEL_SIZE 11
POINT_SIZE 80
RESOLUTION_X 100
RESOLUTION_Y 100
SPACING "P"
AVERAGE_WIDTH 59
CHARSET_REGISTRY "ISO8859"
CHARSET_ENCODING "1"
CHARSET_COLLECTIONS "ASCII ISO8859-1 ADOBE-STANDARD"
FULL_NAME "ITC Bookman Light Italic"
COPYRIGHT "Copyright (c) 1991 Adobe Systems, Inc."
CAP_HEIGHT 7
X_HEIGHT 5
WEIGHT 10
QUAD_WIDTH 8
DEFAULT_CHAR 0
FONT_DESCENT 3
FONT_ASCENT 8
ENDPROPERTIES

CHARS 190

STARTCHAR space
ENCODING 32
SWIDTH 312 0
DWIDTH 3 0
BBX 1 1 0 0
BITMAP
00
ENDCHAR

STARTCHAR exclam
ENCODING 33
SWIDTH 329 0
DWIDTH 4 0
BBX 2 7 1 0
BITMAP
40
40
40
80
80
00
80
ENDCHAR

STARTCHAR quotedbl
ENCODING 34
SWIDTH 364 0
DWIDTH 5 0
BBX 4 3 0 4
BITMAP
50
50
A0
ENDCHAR

STARTCHAR numbersign
ENCODING 35
SWIDTH 613 0
DWIDTH 6 0
BBX 6 7 -1 0
BITMAP
28
28
7C
28
FC
50
50
ENDCHAR

STARTCHAR dollar
ENCODING 36
SWIDTH 613 0
DWIDTH 6 0
BBX 5 8 0 -1
BITMAP
10
30
48
60
30
88
70
20
ENDCHAR

STARTCHAR percent
ENCODING 37
SWIDTH 795 0
DWIDTH 8 0
BBX 7 7 0 0
BITMAP
64
A8
A8
D6
2A
2A
4C
ENDCHAR

STARTCHAR ampersand
ENCODING 38
SWIDTH 829 0
DWIDTH 9 0
BBX 8 7 0 0
BITMAP
30
48
30
52
8C
89
76
ENDCHAR

STARTCHAR quoteright
ENCODING 39
SWIDTH 272 0
DWIDTH 3 0
BBX 2 3 0 4
BITMAP
40
40
80
ENDCHAR

STARTCHAR parenleft
ENCODING 40
SWIDTH 279 0
DWIDTH 4 0
BBX 3 9 0 -2
BITMAP
20
40
40
80
80
80
80
80
40
ENDCHAR

STARTCHAR parenright
ENCODING 41
SWIDTH 279 0
DWIDTH 4 0
BBX 3 9 0 -2
BITMAP
40
20
20
20
20
20
40
40
80
ENDCHAR

STARTCHAR asterisk
ENCODING 42
SWIDTH 447 0
DWIDTH 5 0
BBX 3 3 1 4
BITMAP
A0
40
A0
ENDCHAR

STARTCHAR plus
ENCODING 43
SWIDTH 613 0
DWIDTH 6 0
BBX 5 5 0 0
BITMAP
20
20
F8
20
20
ENDCHAR

STARTCHAR comma
ENCODING 44
SWIDTH 306 0
DWIDTH 3 0
BBX 2 3 -1 -1
BITMAP
40
40
80
ENDCHAR

STARTCHAR minus
ENCODING 45
SWIDTH 606 0
DWIDTH 6 0
BBX 5 1 0 2
BITMAP
F8
ENDCHAR

STARTCHAR period
ENCODING 46
SWIDTH 306 0
DWIDTH 3 0
BBX 1 2 0 0
BITMAP
80
80
ENDCHAR

STARTCHAR slash
ENCODING 47
SWIDTH 393 0
DWIDTH 4 0
BBX 4 8 0 -1
BITMAP
10
10
20
20
40
40
80
80
ENDCHAR

STARTCHAR zero
ENCODING 48
SWIDTH 613 0
DWIDTH 6 0
BBX 5 7 0 0
BITMAP
30
48
C8
88
98
90
60
ENDCHAR

STARTCHAR one
ENCODING 49
SWIDTH 613 0
DWIDTH 6 0
BBX 3 7 1 0
BITMAP
60
20
20
40
40
40
E0
ENDCHAR

STARTCHAR two
ENCODING 50
SWIDTH 616 0
DWIDTH 6 0
BBX 5 7 0 0
BITMAP
30
48
08
10
20
48
F0
ENDCHAR

STARTCHAR three
ENCODING 51
SWIDTH 613 0
DWIDTH 6 0
BBX 5 7 0 0
BITMAP
30
48
08
30
08
88
70
ENDCHAR

STARTCHAR four
ENCODING 52
SWIDTH 613 0
DWIDTH 6 0
BBX 5 7 0 0
BITMAP
18
28
48
90
F8
10
38
ENDCHAR

STARTCHAR five
ENCODING 53
SWIDTH 613 0
DWIDTH 6 0
BBX 5 7 0 0
BITMAP
78
40
F0
08
08
90
60
ENDCHAR

STARTCHAR six
ENCODING 54
SWIDTH 613 0
DWIDTH 6 0
BBX 5 7 0 0
BITMAP
30
48
80
F0
88
88
70
ENDCHAR

STARTCHAR seven
ENCODING 55
SWIDTH 613 0
DWIDTH 6 0
BBX 5 7 0 0
BITMAP
78
88
10
20
20
40
40
ENDCHAR

STARTCHAR eight
ENCODING 56
SWIDTH 613 0
DWIDTH 6 0
BBX 5 7 0 0
BITMAP
30
48
48
70
88
88
70
ENDCHAR

STARTCHAR nine
ENCODING 57
SWIDTH 613 0
DWIDTH 6 0
BBX 5 7 0 0
BITMAP
30
48
88
78
08
90
60
ENDCHAR

STARTCHAR colon
ENCODING 58
SWIDTH 306 0
DWIDTH 3 0
BBX 2 5 0 0
BITMAP
40
40
00
80
80
ENDCHAR

STARTCHAR semicolon
ENCODING 59
SWIDTH 306 0
DWIDTH 3 0
BBX 3 6 -1 -1
BITMAP
20
20
00
40
40
80
ENDCHAR

STARTCHAR less
ENCODING 60
SWIDTH 681 0
DWIDTH 6 0
BBX 5 5 0 0
BITMAP
18
60
80
60
18
ENDCHAR

STARTCHAR equal
ENCODING 61
SWIDTH 612 0
DWIDTH 6 0
BBX 5 3 0 1
BITMAP
F8
00
F8
ENDCHAR

STARTCHAR greater
ENCODING 62
SWIDTH 681 0
DWIDTH 6 0
BBX 5 5 0 0
BITMAP
C0
30
08
30
C0
ENDCHAR

STARTCHAR question
ENCODING 63
SWIDTH 537 0
DWIDTH 6 0
BBX 5 7 0 0
BITMAP
70
88
08
30
40
00
80
ENDCHAR

STARTCHAR at
ENCODING 64
SWIDTH 780 0
DWIDTH 8 0
BBX 8 8 0 -1
BITMAP
3C
42
9D
A5
A9
B6
40
3C
ENDCHAR

STARTCHAR A
ENCODING 65
SWIDTH 687 0
DWIDTH 7 0
BBX 7 7 -1 0
BITMAP
04
0C
14
14
3C
44
EE
ENDCHAR

STARTCHAR B
ENCODING 66
SWIDTH 712 0
DWIDTH 7 0
BBX 7 7 -1 0
BITMAP
7C
22
22
3C
42
42
FC
ENDCHAR

STARTCHAR C
ENCODING 67
SWIDTH 714 0
DWIDTH 7 0
BBX 6 7 0 0
BITMAP
3C
44
80
80
80
C4
78
ENDCHAR

STARTCHAR D
ENCODING 68
SWIDTH 744 0
DWIDTH 8 0
BBX 7 7 0 0
BITMAP
7C
26
22
42
42
44
F8
ENDCHAR

STARTCHAR E
ENCODING 69
SWIDTH 685 0
DWIDTH 7 0
BBX 7 7 -1 0
BITMAP
7E
22
28
38
4A
42
FC
ENDCHAR

STARTCHAR F
ENCODING 70
SWIDTH 617 0
DWIDTH 6 0
BBX 7 7 -1 0
BITMAP
7E
22
28
38
48
40
E0
ENDCHAR

STARTCHAR G
ENCODING 71
SWIDTH 759 0
DWIDTH 8 0
BBX 7 7 0 0
BITMAP
3E
42
80
8E
82
C4
7C
ENDCHAR

STARTCHAR H
ENCODING 72
SWIDTH 788 0
DWIDTH 7 0
BBX 8 7 -1 0
BITMAP
77
22
22
7C
44
44
EE
ENDCHAR

STARTCHAR I
ENCODING 73
SWIDTH 312 0
DWIDTH 4 0
BBX 4 7 0 0
BITMAP
70
20
20
40
40
40
E0
ENDCHAR

STARTCHAR J
ENCODING 74
SWIDTH 560 0
DWIDTH 7 0
BBX 7 7 0 0
BITMAP
0E
04
08
08
88
98
70
ENDCHAR

STARTCHAR K
ENCODING 75
SWIDTH 714 0
DWIDTH 8 0
BBX 8 7 0 0
BITMAP
73
26
28
70
48
44
E6
ENDCHAR

STARTCHAR L
ENCODING 76
SWIDTH 579 0
DWIDTH 7 0
BBX 6 7 0 0
BITMAP
70
20
20
40
40
44
F8
ENDCHAR

STARTCHAR M
ENCODING 77
SWIDTH 855 0
DWIDTH 9 0
BBX 10 7 -1 0
BITMAP
79C0
2A80
2A80
2C80
4900
4900
E980
ENDCHAR

STARTCHAR N
ENCODING 78
SWIDTH 709 0
DWIDTH 7 0
BBX 8 7 -1 0
BITMAP
77
22
32
52
4C
4C
E4
ENDCHAR

STARTCHAR O
ENCODING 79
SWIDTH 759 0
DWIDTH 8 0
BBX 7 7 0 0
BITMAP
3C
46
82
82
82
C4
78
ENDCHAR

STARTCHAR P
ENCODING 80
SWIDTH 588 0
DWIDTH 6 0
BBX 7 7 -1 0
BITMAP
7C
22
22
3C
40
40
E0
ENDCHAR

STARTCHAR Q
ENCODING 81
SWIDTH 778 0
DWIDTH 8 0
BBX 7 9 0 -2
BITMAP
3C
46
82
82
9E
E4
3C
84
78
ENDCHAR

STARTCHAR R
ENCODING 82
SWIDTH 702 0
DWIDTH 7 0
BBX 7 7 -1 0
BITMAP
7C
22
22
3C
48
44
EE
ENDCHAR

STARTCHAR S
ENCODING 83
SWIDTH 644 0
DWIDTH 7 0
BBX 6 7 0 0
BITMAP
3C
44
40
38
04
C4
78
ENDCHAR

STARTCHAR T
ENCODING 84
SWIDTH 596 0
DWIDTH 6 0
BBX 7 7 0 0
BITMAP
7C
92
10
20
20
20
70
ENDCHAR

STARTCHAR U
ENCODING 85
SWIDTH 729 0
DWIDTH 8 0
BBX 8 7 0 0
BITMAP
E7
42
42
84
84
8C
78
ENDCHAR

STARTCHAR V
ENCODING 86
SWIDTH 664 0
DWIDTH 7 0
BBX 7 7 0 0
BITMAP
C6
44
48
50
50
60
40
ENDCHAR

STARTCHAR W
ENCODING 87
SWIDTH 943 0
DWIDTH 10 0
BBX 10 7 0 0
BITMAP
EDC0
4880
4900
4900
5A00
3600
2400
ENDCHAR

STARTCHAR X
ENCODING 88
SWIDTH 691 0
DWIDTH 8 0
BBX 8 7 0 0
BITMAP
77
22
14
18
28
44
EE
ENDCHAR

STARTCHAR Y
ENCODING 89
SWIDTH 658 0
DWIDTH 7 0
BBX 7 7 0 0
BITMAP
EE
44
48
50
30
20
70
ENDCHAR

STARTCHAR Z
ENCODING 90
SWIDTH 586 0
DWIDTH 6 0
BBX 7 7 -1 0
BITMAP
3E
64
08
10
24
4C
F8
ENDCHAR

STARTCHAR bracketleft
ENCODING 91
SWIDTH 269 0
DWIDTH 4 0
BBX 4 9 0 -2
BITMAP
30
20
20
40
40
40
80
80
C0
ENDCHAR

STARTCHAR backslash
ENCODING 92
SWIDTH 592 0
DWIDTH 6 0
BBX 4 7 1 0
BITMAP
80
80
40
40
20
20
10
ENDCHAR

STARTCHAR bracketright
ENCODING 93
SWIDTH 269 0
DWIDTH 4 0
BBX 4 9 -1 -2
BITMAP
30
10
10
20
20
20
40
40
C0
ENDCHAR

STARTCHAR asciicircum
ENCODING 94
SWIDTH 681 0
DWIDTH 6 0
BBX 5 5 0 2
BITMAP
20
50
50
88
88
ENDCHAR

STARTCHAR underscore
ENCODING 95
SWIDTH 718 0
DWIDTH 5 0
BBX 5 1 0 -2
BITMAP
F8
ENDCHAR

STARTCHAR quoteleft
ENCODING 96
SWIDTH 272 0
DWIDTH 3 0
BBX 2 3 1 4
BITMAP
40
80
80
ENDCHAR

STARTCHAR a
ENCODING 97
SWIDTH 615 0
DWIDTH 7 0
BBX 6 5 0 0
BITMAP
34
4C
88
98
6C
ENDCHAR

STARTCHAR b
ENCODING 98
SWIDTH 592 0
DWIDTH 6 0
BBX 6 7 0 0
BITMAP
60
20
38
44
44
C8
B0
ENDCHAR

STARTCHAR c
ENCODING 99
SWIDTH 484 0
DWIDTH 5 0
BBX 5 5 0 0
BITMAP
38
48
80
90
70
ENDCHAR

STARTCHAR d
ENCODING 100
SWIDTH 622 0
DWIDTH 6 0
BBX 6 7 0 0
BITMAP
0C
04
38
48
88
90
78
ENDCHAR

STARTCHAR e
ENCODING 101
SWIDTH 527 0
DWIDTH 5 0
BBX 5 5 0 0
BITMAP
30
48
F0
80
70
ENDCHAR

STARTCHAR f
ENCODING 102
SWIDTH 342 0
DWIDTH 3 0
BBX 7 10 -3 -3
BITMAP
06
08
1C
08
08
10
10
10
A0
40
ENDCHAR

STARTCHAR g
ENCODING 103
SWIDTH 562 0
DWIDTH 6 0
BBX 7 8 -1 -3
BITMAP
1A
24
44
4C
34
08
88
70
ENDCHAR

STARTCHAR h
ENCODING 104
SWIDTH 626 0
DWIDTH 6 0
BBX 6 7 -1 0
BITMAP
30
10
38
24
44
48
CC
ENDCHAR

STARTCHAR i
ENCODING 105
SWIDTH 285 0
DWIDTH 3 0
BBX 2 7 0 0
BITMAP
40
00
C0
40
80
80
C0
ENDCHAR

STARTCHAR j
ENCODING 106
SWIDTH 265 0
DWIDTH 3 0
BBX 5 10 -3 -3
BITMAP
08
00
18
08
08
10
10
10
A0
40
ENDCHAR

STARTCHAR k
ENCODING 107
SWIDTH 594 0
DWIDTH 6 0
BBX 5 7 0 0
BITMAP
60
20
48
50
60
90
88
ENDCHAR

STARTCHAR l
ENCODING 108
SWIDTH 287 0
DWIDTH 3 0
BBX 3 7 0 0
BITMAP
60
20
40
40
80
80
60
ENDCHAR

STARTCHAR m
ENCODING 109
SWIDTH 887 0
DWIDTH 9 0
BBX 8 5 0 0
BITMAP
DA
6D
49
92
93
ENDCHAR

STARTCHAR n
ENCODING 110
SWIDTH 607 0
DWIDTH 6 0
BBX 5 5 0 0
BITMAP
D8
68
48
90
98
ENDCHAR

STARTCHAR o
ENCODING 111
SWIDTH 547 0
DWIDTH 6 0
BBX 5 5 0 0
BITMAP
30
48
88
88
70
ENDCHAR

STARTCHAR p
ENCODING 112
SWIDTH 593 0
DWIDTH 5 0
BBX 7 8 -2 -3
BITMAP
3C
12
22
24
38
40
40
E0
ENDCHAR

STARTCHAR q
ENCODING 113
SWIDTH 562 0
DWIDTH 6 0
BBX 6 8 0 -3
BITMAP
3C
48
88
90
70
10
20
60
ENDCHAR

STARTCHAR r
ENCODING 114
SWIDTH 405 0
DWIDTH 5 0
BBX 5 5 0 0
BITMAP
B8
48
40
80
80
ENDCHAR

STARTCHAR s
ENCODING 115
SWIDTH 528 0
DWIDTH 5 0
BBX 5 5 0 0
BITMAP
38
48
20
90
E0
ENDCHAR

STARTCHAR t
ENCODING 116
SWIDTH 346 0
DWIDTH 4 0
BBX 4 7 0 0
BITMAP
20
20
F0
40
40
80
60
ENDCHAR

STARTCHAR u
ENCODING 117
SWIDTH 619 0
DWIDTH 6 0
BBX 5 5 0 0
BITMAP
C8
48
90
90
68
ENDCHAR

STARTCHAR v
ENCODING 118
SWIDTH 522 0
DWIDTH 5 0
BBX 5 5 0 0
BITMAP
C8
48
50
60
40
ENDCHAR

STARTCHAR w
ENCODING 119
SWIDTH 861 0
DWIDTH 8 0
BBX 8 5 0 0
BITMAP
CA
49
92
92
6C
ENDCHAR

STARTCHAR x
ENCODING 120
SWIDTH 542 0
DWIDTH 5 0
BBX 7 5 -1 0
BITMAP
26
18
10
38
C8
ENDCHAR

STARTCHAR y
ENCODING 121
SWIDTH 597 0
DWIDTH 5 0
BBX 6 8 -1 -3
BITMAP
64
24
48
58
68
10
90
60
ENDCHAR

STARTCHAR z
ENCODING 122
SWIDTH 513 0
DWIDTH 6 0
BBX 6 5 0 0
BITMAP
3C
48
30
48
F0
ENDCHAR

STARTCHAR braceleft
ENCODING 123
SWIDTH 374 0
DWIDTH 5 0
BBX 5 9 0 -2
BITMAP
18
20
20
40
80
40
40
40
20
ENDCHAR

STARTCHAR bar
ENCODING 124
SWIDTH 175 0
DWIDTH 3 0
BBX 1 7 1 0
BITMAP
80
80
80
80
80
80
80
ENDCHAR

STARTCHAR braceright
ENCODING 125
SWIDTH 374 0
DWIDTH 5 0
BBX 5 9 -1 -2
BITMAP
20
10
10
10
08
10
20
20
C0
ENDCHAR

STARTCHAR asciitilde
ENCODING 126
SWIDTH 613 0
DWIDTH 6 0
BBX 6 2 0 2
BITMAP
64
98
ENDCHAR

STARTCHAR exclamdown
ENCODING 161
SWIDTH 329 0
DWIDTH 4 0
BBX 3 7 0 -2
BITMAP
20
00
40
40
40
80
80
ENDCHAR

STARTCHAR cent
ENCODING 162
SWIDTH 613 0
DWIDTH 6 0
BBX 5 8 0 -1
BITMAP
10
10
70
A8
A0
70
40
40
ENDCHAR

STARTCHAR sterling
ENCODING 163
SWIDTH 613 0
DWIDTH 6 0
BBX 5 7 0 0
BITMAP
30
48
40
E0
40
A8
D0
ENDCHAR

STARTCHAR currency
ENCODING 164
SWIDTH 613 0
DWIDTH 6 0
BBX 6 5 0 1
BITMAP
B4
CC
48
CC
B4
ENDCHAR

STARTCHAR yen
ENCODING 165
SWIDTH 615 0
DWIDTH 6 0
BBX 6 7 0 0
BITMAP
CC
48
D8
20
F0
40
E0
ENDCHAR

STARTCHAR brokenbar
ENCODING 166
SWIDTH 175 0
DWIDTH 3 0
BBX 1 7 1 0
BITMAP
80
80
00
00
80
80
80
ENDCHAR

STARTCHAR section
ENCODING 167
SWIDTH 613 0
DWIDTH 6 0
BBX 5 10 0 -3
BITMAP
30
48
20
70
98
C8
70
20
90
60
ENDCHAR

STARTCHAR dieresis
ENCODING 168
SWIDTH 418 0
DWIDTH 5 0
BBX 3 1 1 6
BITMAP
A0
ENDCHAR

STARTCHAR copyright
ENCODING 169
SWIDTH 837 0
DWIDTH 9 0
BBX 7 8 1 -1
BITMAP
38
44
9A
A2
A2
9A
44
38
ENDCHAR

STARTCHAR ordfeminine
ENCODING 170
SWIDTH 409 0
DWIDTH 5 0
BBX 4 5 0 2
BITMAP
60
A0
D0
00
F0
ENDCHAR

STARTCHAR guillemotleft
ENCODING 171
SWIDTH 295 0
DWIDTH 5 0
BBX 4 3 0 1
BITMAP
50
A0
50
ENDCHAR

STARTCHAR logicalnot
ENCODING 172
SWIDTH 787 0
DWIDTH 6 0
BBX 5 3 0 1
BITMAP
F8
08
08
ENDCHAR

STARTCHAR hyphen
ENCODING 173
SWIDTH 312 0
DWIDTH 3 0
BBX 2 1 0 2
BITMAP
C0
ENDCHAR

STARTCHAR registered
ENCODING 174
SWIDTH 840 0
DWIDTH 9 0
BBX 7 8 1 -1
BITMAP
38
44
BA
AA
B2
AA
44
38
ENDCHAR

STARTCHAR macron
ENCODING 175
SWIDTH 438 0
DWIDTH 5 0
BBX 3 1 1 6
BITMAP
E0
ENDCHAR

STARTCHAR degree
ENCODING 176
SWIDTH 400 0
DWIDTH 4 0
BBX 4 3 0 4
BITMAP
60
90
60
ENDCHAR

STARTCHAR plusminus
ENCODING 177
SWIDTH 613 0
DWIDTH 6 0
BBX 5 5 0 0
BITMAP
20
F8
20
00
F8
ENDCHAR

STARTCHAR twosuperior
ENCODING 178
SWIDTH 616 0
DWIDTH 3 0
BBX 3 4 0 3
BITMAP
60
A0
40
E0
ENDCHAR

STARTCHAR threesuperior
ENCODING 179
SWIDTH 613 0
DWIDTH 3 0
BBX 3 4 0 3
BITMAP
E0
40
20
C0
ENDCHAR

STARTCHAR acute
ENCODING 180
SWIDTH 320 0
DWIDTH 4 0
BBX 2 2 1 6
BITMAP
40
80
ENDCHAR

STARTCHAR mu
ENCODING 181
SWIDTH 619 0
DWIDTH 6 0
BBX 6 8 -1 -3
BITMAP
64
24
48
48
74
80
80
80
ENDCHAR

STARTCHAR paragraph
ENCODING 182
SWIDTH 613 0
DWIDTH 7 0
BBX 7 8 0 -1
BITMAP
7E
F4
F4
74
28
28
28
7C
ENDCHAR

STARTCHAR periodcentered
ENCODING 183
SWIDTH 306 0
DWIDTH 3 0
BBX 1 2 1 2
BITMAP
80
80
ENDCHAR

STARTCHAR cedilla
ENCODING 184
SWIDTH 324 0
DWIDTH 4 0
BBX 4 3 0 -3
BITMAP
20
90
60
ENDCHAR

STARTCHAR onesuperior
ENCODING 185
SWIDTH 613 0
DWIDTH 3 0
BBX 3 4 0 3
BITMAP
C0
40
40
E0
ENDCHAR

STARTCHAR ordmasculine
ENCODING 186
SWIDTH 409 0
DWIDTH 5 0
BBX 4 5 0 2
BITMAP
70
90
E0
00
F0
ENDCHAR

STARTCHAR guillemotright
ENCODING 187
SWIDTH 295 0
DWIDTH 5 0
BBX 4 3 0 1
BITMAP
A0
50
A0
ENDCHAR

STARTCHAR onequarter
ENCODING 188
SWIDTH 20 0
DWIDTH 9 0
BBX 8 7 0 0
BITMAP
C2
44
48
FA
16
2F
42
ENDCHAR

STARTCHAR onehalf
ENCODING 189
SWIDTH 20 0
DWIDTH 9 0
BBX 8 7 0 0
BITMAP
C2
44
48
FB
15
22
47
ENDCHAR

STARTCHAR threequarters
ENCODING 190
SWIDTH 20 0
DWIDTH 9 0
BBX 8 7 0 0
BITMAP
E2
44
28
DA
16
2F
42
ENDCHAR

STARTCHAR questiondown
ENCODING 191
SWIDTH 537 0
DWIDTH 6 0
BBX 5 7 0 -2
BITMAP
08
00
10
60
80
88
70
ENDCHAR

STARTCHAR Agrave
ENCODING 192
SWIDTH 687 0
DWIDTH 7 0
BBX 7 8 -1 0
BITMAP
08
04
00
0C
14
3C
44
EE
ENDCHAR

STARTCHAR Aacute
ENCODING 193
SWIDTH 687 0
DWIDTH 7 0
BBX 7 8 -1 0
BITMAP
04
08
00
0C
14
3C
44
EE
ENDCHAR

STARTCHAR Acircumflex
ENCODING 194
SWIDTH 687 0
DWIDTH 7 0
BBX 7 8 -1 0
BITMAP
04
0A
00
0C
14
3C
44
EE
ENDCHAR

STARTCHAR Atilde
ENCODING 195
SWIDTH 687 0
DWIDTH 7 0
BBX 8 8 -1 0
BITMAP
0D
12
00
0C
14
3C
44
EE
ENDCHAR

STARTCHAR Adieresis
ENCODING 196
SWIDTH 687 0
DWIDTH 7 0
BBX 7 7 -1 0
BITMAP
0A
00
0C
14
3C
44
EE
ENDCHAR

STARTCHAR Aring
ENCODING 197
SWIDTH 687 0
DWIDTH 7 0
BBX 7 8 -1 0
BITMAP
04
0A
04
0C
14
3C
44
EE
ENDCHAR

STARTCHAR AE
ENCODING 198
SWIDTH 1216 0
DWIDTH 13 0
BBX 13 7 -1 0
BITMAP
03F0
0508
0940
1FC0
2250
4210
C7E0
ENDCHAR

STARTCHAR Ccedilla
ENCODING 199
SWIDTH 714 0
DWIDTH 7 0
BBX 6 10 0 -3
BITMAP
3C
44
80
80
80
C4
78
10
48
30
ENDCHAR

STARTCHAR Egrave
ENCODING 200
SWIDTH 685 0
DWIDTH 7 0
BBX 7 8 -1 0
BITMAP
10
08
00
7E
22
70
42
FC
ENDCHAR

STARTCHAR Eacute
ENCODING 201
SWIDTH 685 0
DWIDTH 7 0
BBX 7 8 -1 0
BITMAP
08
10
00
7E
22
70
42
FC
ENDCHAR

STARTCHAR Ecircumflex
ENCODING 202
SWIDTH 685 0
DWIDTH 7 0
BBX 7 8 -1 0
BITMAP
08
14
00
7E
22
70
42
FC
ENDCHAR

STARTCHAR Edieresis
ENCODING 203
SWIDTH 685 0
DWIDTH 7 0
BBX 7 7 -1 0
BITMAP
14
00
7E
22
70
42
FC
ENDCHAR

STARTCHAR Igrave
ENCODING 204
SWIDTH 312 0
DWIDTH 4 0
BBX 4 8 0 0
BITMAP
40
20
00
70
20
40
40
E0
ENDCHAR

STARTCHAR Iacute
ENCODING 205
SWIDTH 312 0
DWIDTH 4 0
BBX 4 8 0 0
BITMAP
10
20
00
70
20
40
40
E0
ENDCHAR

STARTCHAR Icircumflex
ENCODING 206
SWIDTH 312 0
DWIDTH 4 0
BBX 4 8 0 0
BITMAP
20
50
00
70
20
40
40
E0
ENDCHAR

STARTCHAR Idieresis
ENCODING 207
SWIDTH 312 0
DWIDTH 4 0
BBX 4 7 0 0
BITMAP
50
00
70
20
40
40
E0
ENDCHAR

STARTCHAR Eth
ENCODING 208
SWIDTH 744 0
DWIDTH 8 0
BBX 7 7 0 0
BITMAP
7C
26
22
F2
42
44
F8
ENDCHAR

STARTCHAR Ntilde
ENCODING 209
SWIDTH 709 0
DWIDTH 7 0
BBX 8 8 -1 0
BITMAP
1A
24
00
77
22
34
4C
E4
ENDCHAR

STARTCHAR Ograve
ENCODING 210
SWIDTH 759 0
DWIDTH 8 0
BBX 7 8 0 0
BITMAP
10
08
00
3C
46
82
C4
78
ENDCHAR

STARTCHAR Oacute
ENCODING 211
SWIDTH 759 0
DWIDTH 8 0
BBX 7 8 0 0
BITMAP
04
08
00
3C
46
82
C4
78
ENDCHAR

STARTCHAR Ocircumflex
ENCODING 212
SWIDTH 759 0
DWIDTH 8 0
BBX 7 8 0 0
BITMAP
08
14
00
3C
46
82
C4
78
ENDCHAR

STARTCHAR Otilde
ENCODING 213
SWIDTH 759 0
DWIDTH 8 0
BBX 7 8 0 0
BITMAP
1A
24
00
3C
46
82
C4
78
ENDCHAR

STARTCHAR Odieresis
ENCODING 214
SWIDTH 759 0
DWIDTH 8 0
BBX 7 7 0 0
BITMAP
14
00
3C
46
82
C4
78
ENDCHAR

STARTCHAR multiply
ENCODING 215
SWIDTH 613 0
DWIDTH 6 0
BBX 5 5 0 0
BITMAP
88
50
20
50
88
ENDCHAR

STARTCHAR Oslash
ENCODING 216
SWIDTH 758 0
DWIDTH 8 0
BBX 7 9 0 -1
BITMAP
02
3C
46
8A
92
A2
C4
78
80
ENDCHAR

STARTCHAR Ugrave
ENCODING 217
SWIDTH 729 0
DWIDTH 8 0
BBX 8 8 0 0
BITMAP
10
08
00
E7
42
84
84
78
ENDCHAR

STARTCHAR Uacute
ENCODING 218
SWIDTH 729 0
DWIDTH 8 0
BBX 8 8 0 0
BITMAP
04
08
00
E7
42
84
84
78
ENDCHAR

STARTCHAR Ucircumflex
ENCODING 219
SWIDTH 729 0
DWIDTH 8 0
BBX 8 8 0 0
BITMAP
08
14
00
E7
42
84
84
78
ENDCHAR

STARTCHAR Udieresis
ENCODING 220
SWIDTH 729 0
DWIDTH 8 0
BBX 8 7 0 0
BITMAP
14
00
E7
42
84
84
78
ENDCHAR

STARTCHAR Yacute
ENCODING 221
SWIDTH 658 0
DWIDTH 7 0
BBX 7 8 0 0
BITMAP
08
10
00
EE
48
30
20
70
ENDCHAR

STARTCHAR Thorn
ENCODING 222
SWIDTH 588 0
DWIDTH 6 0
BBX 7 7 -1 0
BITMAP
70
3C
22
22
7C
40
E0
ENDCHAR

STARTCHAR germandbls
ENCODING 223
SWIDTH 623 0
DWIDTH 6 0
BBX 8 10 -2 -2
BITMAP
00
0C
12
32
14
12
22
2C
20
C0
ENDCHAR

STARTCHAR agrave
ENCODING 224
SWIDTH 615 0
DWIDTH 7 0
BBX 6 8 0 0
BITMAP
20
10
00
34
4C
88
98
6C
ENDCHAR

STARTCHAR aacute
ENCODING 225
SWIDTH 615 0
DWIDTH 7 0
BBX 6 8 0 0
BITMAP
08
10
00
34
4C
88
98
6C
ENDCHAR

STARTCHAR acircumflex
ENCODING 226
SWIDTH 615 0
DWIDTH 7 0
BBX 6 8 0 0
BITMAP
10
28
00
34
4C
88
98
6C
ENDCHAR

STARTCHAR atilde
ENCODING 227
SWIDTH 615 0
DWIDTH 7 0
BBX 6 8 0 0
BITMAP
34
48
00
34
4C
88
98
6C
ENDCHAR

STARTCHAR adieresis
ENCODING 228
SWIDTH 615 0
DWIDTH 7 0
BBX 6 7 0 0
BITMAP
28
00
34
4C
88
98
6C
ENDCHAR

STARTCHAR aring
ENCODING 229
SWIDTH 615 0
DWIDTH 7 0
BBX 6 8 0 0
BITMAP
10
28
10
34
4C
88
98
6C
ENDCHAR

STARTCHAR ae
ENCODING 230
SWIDTH 859 0
DWIDTH 9 0
BBX 9 5 0 0
BITMAP
7300
1480
7F00
9800
EF00
ENDCHAR

STARTCHAR ccedilla
ENCODING 231
SWIDTH 484 0
DWIDTH 5 0
BBX 5 8 0 -3
BITMAP
38
48
80
90
70
20
90
60
ENDCHAR

STARTCHAR egrave
ENCODING 232
SWIDTH 527 0
DWIDTH 5 0
BBX 5 8 0 0
BITMAP
20
10
00
30
48
F0
80
70
ENDCHAR

STARTCHAR eacute
ENCODING 233
SWIDTH 527 0
DWIDTH 5 0
BBX 5 8 0 0
BITMAP
10
20
00
30
48
F0
80
70
ENDCHAR

STARTCHAR ecircumflex
ENCODING 234
SWIDTH 527 0
DWIDTH 5 0
BBX 5 8 0 0
BITMAP
10
28
00
30
48
F0
80
70
ENDCHAR

STARTCHAR edieresis
ENCODING 235
SWIDTH 527 0
DWIDTH 5 0
BBX 5 7 0 0
BITMAP
28
00
30
48
F0
80
70
ENDCHAR

STARTCHAR igrave
ENCODING 236
SWIDTH 285 0
DWIDTH 3 0
BBX 2 8 0 0
BITMAP
80
40
00
C0
40
40
80
C0
ENDCHAR

STARTCHAR iacute
ENCODING 237
SWIDTH 285 0
DWIDTH 3 0
BBX 2 8 0 0
BITMAP
40
80
00
C0
40
40
80
C0
ENDCHAR

STARTCHAR icircumflex
ENCODING 238
SWIDTH 285 0
DWIDTH 3 0
BBX 3 8 0 0
BITMAP
40
A0
00
C0
40
40
80
C0
ENDCHAR

STARTCHAR idieresis
ENCODING 239
SWIDTH 285 0
DWIDTH 3 0
BBX 3 7 0 0
BITMAP
A0
00
C0
40
40
80
C0
ENDCHAR

STARTCHAR eth
ENCODING 240
SWIDTH 547 0
DWIDTH 6 0
BBX 5 8 0 0
BITMAP
20
38
50
38
48
88
88
70
ENDCHAR

STARTCHAR ntilde
ENCODING 241
SWIDTH 607 0
DWIDTH 6 0
BBX 5 8 0 0
BITMAP
68
90
00
D8
68
48
90
98
ENDCHAR

STARTCHAR ograve
ENCODING 242
SWIDTH 547 0
DWIDTH 6 0
BBX 5 8 0 0
BITMAP
20
10
00
30
48
88
88
70
ENDCHAR

STARTCHAR oacute
ENCODING 243
SWIDTH 547 0
DWIDTH 6 0
BBX 5 8 0 0
BITMAP
10
20
00
30
48
88
88
70
ENDCHAR

STARTCHAR ocircumflex
ENCODING 244
SWIDTH 547 0
DWIDTH 6 0
BBX 5 8 0 0
BITMAP
10
28
00
30
48
88
88
70
ENDCHAR

STARTCHAR otilde
ENCODING 245
SWIDTH 547 0
DWIDTH 6 0
BBX 6 8 0 0
BITMAP
34
48
00
30
48
88
88
70
ENDCHAR

STARTCHAR odieresis
ENCODING 246
SWIDTH 547 0
DWIDTH 6 0
BBX 5 7 0 0
BITMAP
28
00
30
48
88
88
70
ENDCHAR

STARTCHAR divide
ENCODING 247
SWIDTH 613 0
DWIDTH 6 0
BBX 5 5 0 0
BITMAP
20
00
F8
00
20
ENDCHAR

STARTCHAR oslash
ENCODING 248
SWIDTH 546 0
DWIDTH 6 0
BBX 5 7 0 -1
BITMAP
08
30
58
A8
C8
70
80
ENDCHAR

STARTCHAR ugrave
ENCODING 249
SWIDTH 619 0
DWIDTH 6 0
BBX 5 8 0 0
BITMAP
20
10
00
C8
48
90
90
68
ENDCHAR

STARTCHAR uacute
ENCODING 250
SWIDTH 619 0
DWIDTH 6 0
BBX 5 8 0 0
BITMAP
10
20
00
C8
48
90
90
68
ENDCHAR

STARTCHAR ucircumflex
ENCODING 251
SWIDTH 619 0
DWIDTH 6 0
BBX 5 8 0 0
BITMAP
10
28
00
C8
48
90
90
68
ENDCHAR

STARTCHAR udieresis
ENCODING 252
SWIDTH 619 0
DWIDTH 6 0
BBX 5 7 0 0
BITMAP
50
00
C8
48
90
90
68
ENDCHAR

STARTCHAR yacute
ENCODING 253
SWIDTH 597 0
DWIDTH 5 0
BBX 6 11 -1 -3
BITMAP
04
08
00
64
24
48
58
68
10
90
60
ENDCHAR

STARTCHAR thorn
ENCODING 254
SWIDTH 593 0
DWIDTH 5 0
BBX 7 10 -2 -3
BITMAP
30
10
1C
12
22
24
38
40
40
E0
ENDCHAR

STARTCHAR ydieresis
ENCODING 255
SWIDTH 597 0
DWIDTH 5 0
BBX 6 10 -1 -3
BITMAP
14
00
64
24
48
58
68
10
90
60
ENDCHAR
ENDFONT
